# xmcd CD database file
#
# Track frame offsets:
#	150
#	18407
#	33970
#	53312
#	74960
#	86457
#	102225
#	124197
#	144255
#	160822
#	184157
#	202115
#	220582
#	243280
#	258532
#	277915
#	290227
#	309847
#
# Disc length: 4359 seconds
#
# Revision: 0
# Processed by: cddbd v1.5.1PL2 Copyright (c) Steve Scherf et al.
# Submitted via: CDex 1.51
#
DISCID=02110512
DTITLE=Various Artist - promo radio Sony Music no.0023
DYEAR=1991
DGENRE=Pop Rock
TTITLE0=Gloria Estefan  -  coming ourt of the dark
TTITLE1=Susanna Hoffs  -  my side of the bed
TTITLE2=Mariah Carey  -  someday (straight mix)
TTITLE3=George Michael  -  waiting for that day
TTITLE4=Thomas Trio and The Red Albino  -  chasing the dragon
TTITLE5=Tommy Conwell and The Young Rumblers  -  let me love you too
TTITLE6=Allman Brothers  -  it ain't over yet
TTITLE7=Alice in Chains  -  man in the box
TTITLE8=Mitsou  -  dis-moi dis-moi
TTITLE9=Harry Connick JR.  -  promise me you'll remember
TTITLE10=Carmen Capagne  -  au clair de la lune
TTITLE11=Alexander O'Neal  -  all true man
TTITLE12=EPMD  -  gold digger
TTITLE13=Waylon Jennings  -  what bothers me most
TTITLE14=Judy Collins  -  the Colorado song (edit)
TTITLE15=Cindi Cain  -  two more on the dance floor
TTITLE16=Robert Leroux  -  les jardins de l'amour
TTITLE17=Lisette Melendez  -  together forever  (radio edit)
EXTD=YEAR: 1991
EXTT0=
EXTT1=
EXTT2=
EXTT3=
EXTT4=
EXTT5=
EXTT6=
EXTT7=
EXTT8=
EXTT9=
EXTT10=
EXTT11=
EXTT12=
EXTT13=
EXTT14=
EXTT15=
EXTT16=
EXTT17=
PLAYORDER=
